<svg height="2500" width="2500" xmlns="http://www.w3.org/2000/svg" viewBox="0 0 616.469 597"><g fill-rule="evenodd"><path d="M567.74 0H29.292C13.188 0 0 13.115 0 29.27v538.522C0 583.88 13.172 597 29.292 597H567.74c16.077 0 29.26-13.12 29.26-29.208V29.271C597.03 13.115 583.817 0 567.74 0z" fill="#009ee2"/><g fill="#fff"><path d="M557 356.401c-21.588-27.432-74.479-33.182-103.11-33.182-119.291 0-233.42 22.193-338.411 62.781.923-31.15.031-62.328-3.479-93.099 79.932-23.349 220.97-42.109 313.792-33.969 86.697 7.62 119.37 55.99 131.208 97.47z"/><path d="M519 277c-24.172-22.75-42.63-39.15-115.979-49.781-73.349-10.574-228.521 5.421-297.193 22.729A658.696 658.696 0 0 0 86 169.631 835.842 835.842 0 0 1 230.932 157c48.016 0 95.199 4.11 140.99 11.937C468.936 185.584 499.801 240 519 277z"/><path d="M33 50.281C282.76 43.75 423.079 153.713 451 184c-24.317-20.385-71.23-37.755-111.661-45.593-49.651-9.584-100.927-14.574-153.568-14.574-38.479 0-76.402 2.703-113.443 7.954C62.902 107.01 45.402 73.74 33 50.28zM518.89 514.328c40.26-83.099 30.829-97.63-48.207-88.01C347.828 441.311 192.979 493.868 76 557c21.339-41.27 31.75-82.812 35.86-120.281 112.943-49.558 237.219-78.088 367.848-80.667 136.761-2.713 85.423 101.86 39.183 158.276z"/></g></g></svg>